<svg width="596" height="189" viewBox="0 0 596 189" fill="none" xmlns="http://www.w3.org/2000/svg">
<path d="M500.887 185.639V0H530.943V185.639H500.887Z" fill="black"/>
<path d="M404.939 188.292C390.942 188.292 378.713 185.493 368.253 179.894C357.939 174.148 349.91 166.118 344.164 155.805C338.418 145.492 335.545 133.337 335.545 119.34C335.545 105.344 338.344 93.1887 343.943 82.8755C349.689 72.5622 357.792 64.6062 368.253 59.0076C378.713 53.2617 391.016 50.3887 405.159 50.3887C419.451 50.3887 431.753 53.188 442.066 58.7866C452.38 64.3852 460.336 72.3412 465.934 82.6545C471.533 92.9678 474.332 105.196 474.332 119.34C474.332 133.337 471.533 145.565 465.934 156.026C460.336 166.339 452.306 174.295 441.845 179.894C431.532 185.493 419.23 188.292 404.939 188.292ZM404.939 162.214C417.462 162.214 427.112 158.383 433.889 150.722C440.814 143.061 444.276 132.6 444.276 119.34C444.276 105.786 440.814 95.2514 433.889 87.7374C427.112 80.2235 417.462 76.4665 404.939 76.4665C392.563 76.4665 382.912 80.2972 375.988 87.9584C369.063 95.4724 365.601 105.933 365.601 119.34C365.601 132.6 369.063 143.061 375.988 150.722C382.912 158.383 392.563 162.214 404.939 162.214Z" fill="black"/>
<path d="M181.754 185.637V83.3142H166.505V53.0374H197.887V74.0323H207.169C211.884 66.5183 218.145 60.7724 225.954 56.7944C233.91 52.6691 243.487 50.6064 254.684 50.6064C272.364 50.6064 286.139 55.6158 296.011 65.6344C306.029 75.5056 311.039 88.7655 311.039 105.414V185.637H280.983V110.718C280.983 99.8155 278.036 91.4912 272.143 85.7452C266.397 79.9993 257.851 77.1263 246.507 77.1263C235.162 77.1263 226.543 79.9993 220.65 85.7452C214.757 91.4912 211.81 99.8155 211.81 110.718V185.637H181.754Z" fill="black"/>
<path d="M0 185.638V6.62891H30.7188V86.4094H31.6028L115.803 6.62891H153.815L73.5926 82.2105L156.025 185.638H118.897L51.2717 100.774L30.7188 117.349V185.638H0Z" fill="black"/>
<path d="M595.948 185.638H565.89V53.0391H595.948V185.638Z" fill="black"/>
</svg>
