<?xml version="1.0" encoding="UTF-8"?>
<svg width="19px" height="23px" viewBox="0 0 19 23" version="1.1" xmlns="http://www.w3.org/2000/svg" xmlns:xlink="http://www.w3.org/1999/xlink">
    <!-- Generator: Sketch 43.2 (39069) - http://www.bohemiancoding.com/sketch -->
    <title>apple</title>
    <desc>Created with Sketch.</desc>
    <defs></defs>
    <g id="Website" stroke="none" stroke-width="1" fill="none" fill-rule="evenodd">
        <g id="Artboard" transform="translate(-959.000000, -424.000000)" fill="#FFFFFF">
            <g id="apple" transform="translate(951.000000, 417.000000)">
                <path d="M25.9622213,14.5414694 C25.8580047,14.6049031 23.5789072,15.9674258 23.60368,18.7680702 C23.6318697,22.1248463 26.4901382,23.2345028 26.5251618,23.2466682 C26.5080771,23.3248742 26.0775429,24.8481537 25.0054787,26.3948949 C24.110241,27.7565486 23.1722916,29.0877888 21.6825067,29.1121196 C20.2354336,29.1460089 19.7485199,28.2457707 18.0887424,28.2457707 C16.4135887,28.2457707 15.8950684,29.0877888 14.5069374,29.1460089 C13.088054,29.1990152 12.0040305,27.6922459 11.0763319,26.3427576 C9.2217889,23.5872989 7.77813269,18.5777689 9.71382794,15.1688554 C10.6517774,13.4969845 12.3619547,12.4203484 14.1900164,12.3916728 C15.6106083,12.3621283 16.928692,13.3675101 17.8017196,13.3675101 C18.6576626,13.3675101 20.2875419,12.1648754 21.967821,12.3447492 C22.670856,12.3656041 24.671473,12.6271598 25.9622213,14.5414694 Z M20.8701298,10.5321075 C20.0910679,11.4671039 18.8447399,12.1822545 17.6308728,12.0901452 C17.4719851,10.8284214 18.0870339,9.4867537 18.7755469,8.66819737 C19.5537545,7.73928366 20.9051534,7.02760889 21.9857599,6.97894737 C22.1275629,8.29020161 21.6167307,9.58233883 20.8701298,10.5321075 Z"></path>
            </g>
        </g>
    </g>
</svg>